<mxfile host="app.diagrams.net" modified="2021-03-08T06:57:52.843Z" agent="5.0 (Macintosh; Intel Mac OS X 10_15_6) AppleWebKit/537.36 (KHTML, like Gecko) Chrome/89.0.4389.82 Safari/537.36" etag="GlgjMsRK9asa9rECTq9e" version="14.4.4" type="github">
  <diagram id="A0iVA3XITitb1yduaHoC" name="Page-1">
    <mxGraphModel dx="1426" dy="704" grid="1" gridSize="10" guides="1" tooltips="1" connect="1" arrows="1" fold="1" page="1" pageScale="1" pageWidth="827" pageHeight="1169" math="0" shadow="0">
      <root>
        <mxCell id="0" />
        <mxCell id="1" parent="0" />
        <mxCell id="WnycxrVpptrqjy_BFZ2X-1" value="etcd" style="ellipse;whiteSpace=wrap;html=1;aspect=fixed;" vertex="1" parent="1">
          <mxGeometry x="660" y="200" width="80" height="80" as="geometry" />
        </mxCell>
        <mxCell id="WnycxrVpptrqjy_BFZ2X-6" value="rule pool" style="swimlane;" vertex="1" parent="1">
          <mxGeometry x="350" y="30" width="260" height="450" as="geometry" />
        </mxCell>
        <mxCell id="WnycxrVpptrqjy_BFZ2X-2" value="rule-1" style="swimlane;fontStyle=0;childLayout=stackLayout;horizontal=1;startSize=26;fillColor=none;horizontalStack=0;resizeParent=1;resizeParentMax=0;resizeLast=0;collapsible=1;marginBottom=0;" vertex="1" parent="WnycxrVpptrqjy_BFZ2X-6">
          <mxGeometry x="30" y="40" width="90" height="182" as="geometry" />
        </mxCell>
        <mxCell id="WnycxrVpptrqjy_BFZ2X-3" value="key" style="text;strokeColor=none;fillColor=none;align=left;verticalAlign=top;spacingLeft=4;spacingRight=4;overflow=hidden;rotatable=0;points=[[0,0.5],[1,0.5]];portConstraint=eastwest;" vertex="1" parent="WnycxrVpptrqjy_BFZ2X-2">
          <mxGeometry y="26" width="90" height="26" as="geometry" />
        </mxCell>
        <mxCell id="WnycxrVpptrqjy_BFZ2X-4" value="匹配超时时间" style="text;strokeColor=none;fillColor=none;align=left;verticalAlign=top;spacingLeft=4;spacingRight=4;overflow=hidden;rotatable=0;points=[[0,0.5],[1,0.5]];portConstraint=eastwest;" vertex="1" parent="WnycxrVpptrqjy_BFZ2X-2">
          <mxGeometry y="52" width="90" height="26" as="geometry" />
        </mxCell>
        <mxCell id="WnycxrVpptrqjy_BFZ2X-5" value="成功超时时间" style="text;strokeColor=none;fillColor=none;align=left;verticalAlign=top;spacingLeft=4;spacingRight=4;overflow=hidden;rotatable=0;points=[[0,0.5],[1,0.5]];portConstraint=eastwest;" vertex="1" parent="WnycxrVpptrqjy_BFZ2X-2">
          <mxGeometry y="78" width="90" height="26" as="geometry" />
        </mxCell>
        <mxCell id="WnycxrVpptrqjy_BFZ2X-7" value="满足人数" style="text;strokeColor=none;fillColor=none;align=left;verticalAlign=top;spacingLeft=4;spacingRight=4;overflow=hidden;rotatable=0;points=[[0,0.5],[1,0.5]];portConstraint=eastwest;" vertex="1" parent="WnycxrVpptrqjy_BFZ2X-2">
          <mxGeometry y="104" width="90" height="26" as="geometry" />
        </mxCell>
        <mxCell id="WnycxrVpptrqjy_BFZ2X-8" value="满足队列人数" style="text;strokeColor=none;fillColor=none;align=left;verticalAlign=top;spacingLeft=4;spacingRight=4;overflow=hidden;rotatable=0;points=[[0,0.5],[1,0.5]];portConstraint=eastwest;" vertex="1" parent="WnycxrVpptrqjy_BFZ2X-2">
          <mxGeometry y="130" width="90" height="26" as="geometry" />
        </mxCell>
        <mxCell id="WnycxrVpptrqjy_BFZ2X-9" value="权重配置" style="text;strokeColor=none;fillColor=none;align=left;verticalAlign=top;spacingLeft=4;spacingRight=4;overflow=hidden;rotatable=0;points=[[0,0.5],[1,0.5]];portConstraint=eastwest;" vertex="1" parent="WnycxrVpptrqjy_BFZ2X-2">
          <mxGeometry y="156" width="90" height="26" as="geometry" />
        </mxCell>
        <mxCell id="WnycxrVpptrqjy_BFZ2X-11" value="rule-2" style="swimlane;fontStyle=0;childLayout=stackLayout;horizontal=1;startSize=26;fillColor=none;horizontalStack=0;resizeParent=1;resizeParentMax=0;resizeLast=0;collapsible=1;marginBottom=0;" vertex="1" parent="WnycxrVpptrqjy_BFZ2X-6">
          <mxGeometry x="140" y="40" width="90" height="182" as="geometry" />
        </mxCell>
        <mxCell id="WnycxrVpptrqjy_BFZ2X-12" value="key" style="text;strokeColor=none;fillColor=none;align=left;verticalAlign=top;spacingLeft=4;spacingRight=4;overflow=hidden;rotatable=0;points=[[0,0.5],[1,0.5]];portConstraint=eastwest;" vertex="1" parent="WnycxrVpptrqjy_BFZ2X-11">
          <mxGeometry y="26" width="90" height="26" as="geometry" />
        </mxCell>
        <mxCell id="WnycxrVpptrqjy_BFZ2X-13" value="匹配超时时间" style="text;strokeColor=none;fillColor=none;align=left;verticalAlign=top;spacingLeft=4;spacingRight=4;overflow=hidden;rotatable=0;points=[[0,0.5],[1,0.5]];portConstraint=eastwest;" vertex="1" parent="WnycxrVpptrqjy_BFZ2X-11">
          <mxGeometry y="52" width="90" height="26" as="geometry" />
        </mxCell>
        <mxCell id="WnycxrVpptrqjy_BFZ2X-14" value="成功超时时间" style="text;strokeColor=none;fillColor=none;align=left;verticalAlign=top;spacingLeft=4;spacingRight=4;overflow=hidden;rotatable=0;points=[[0,0.5],[1,0.5]];portConstraint=eastwest;" vertex="1" parent="WnycxrVpptrqjy_BFZ2X-11">
          <mxGeometry y="78" width="90" height="26" as="geometry" />
        </mxCell>
        <mxCell id="WnycxrVpptrqjy_BFZ2X-15" value="满足人数" style="text;strokeColor=none;fillColor=none;align=left;verticalAlign=top;spacingLeft=4;spacingRight=4;overflow=hidden;rotatable=0;points=[[0,0.5],[1,0.5]];portConstraint=eastwest;" vertex="1" parent="WnycxrVpptrqjy_BFZ2X-11">
          <mxGeometry y="104" width="90" height="26" as="geometry" />
        </mxCell>
        <mxCell id="WnycxrVpptrqjy_BFZ2X-16" value="满足队列人数" style="text;strokeColor=none;fillColor=none;align=left;verticalAlign=top;spacingLeft=4;spacingRight=4;overflow=hidden;rotatable=0;points=[[0,0.5],[1,0.5]];portConstraint=eastwest;" vertex="1" parent="WnycxrVpptrqjy_BFZ2X-11">
          <mxGeometry y="130" width="90" height="26" as="geometry" />
        </mxCell>
        <mxCell id="WnycxrVpptrqjy_BFZ2X-17" value="权重配置" style="text;strokeColor=none;fillColor=none;align=left;verticalAlign=top;spacingLeft=4;spacingRight=4;overflow=hidden;rotatable=0;points=[[0,0.5],[1,0.5]];portConstraint=eastwest;" vertex="1" parent="WnycxrVpptrqjy_BFZ2X-11">
          <mxGeometry y="156" width="90" height="26" as="geometry" />
        </mxCell>
        <mxCell id="WnycxrVpptrqjy_BFZ2X-19" value="权重配置" style="swimlane;fontStyle=0;childLayout=stackLayout;horizontal=1;startSize=26;fillColor=none;horizontalStack=0;resizeParent=1;resizeParentMax=0;resizeLast=0;collapsible=1;marginBottom=0;" vertex="1" parent="WnycxrVpptrqjy_BFZ2X-6">
          <mxGeometry x="30" y="240" width="90" height="156" as="geometry" />
        </mxCell>
        <mxCell id="WnycxrVpptrqjy_BFZ2X-20" value="ruleId" style="text;strokeColor=none;fillColor=none;align=left;verticalAlign=top;spacingLeft=4;spacingRight=4;overflow=hidden;rotatable=0;points=[[0,0.5],[1,0.5]];portConstraint=eastwest;" vertex="1" parent="WnycxrVpptrqjy_BFZ2X-19">
          <mxGeometry y="26" width="90" height="26" as="geometry" />
        </mxCell>
        <mxCell id="WnycxrVpptrqjy_BFZ2X-21" value="上浮最大值" style="text;strokeColor=none;fillColor=none;align=left;verticalAlign=top;spacingLeft=4;spacingRight=4;overflow=hidden;rotatable=0;points=[[0,0.5],[1,0.5]];portConstraint=eastwest;" vertex="1" parent="WnycxrVpptrqjy_BFZ2X-19">
          <mxGeometry y="52" width="90" height="26" as="geometry" />
        </mxCell>
        <mxCell id="WnycxrVpptrqjy_BFZ2X-22" value="下浮最大值" style="text;strokeColor=none;fillColor=none;align=left;verticalAlign=top;spacingLeft=4;spacingRight=4;overflow=hidden;rotatable=0;points=[[0,0.5],[1,0.5]];portConstraint=eastwest;" vertex="1" parent="WnycxrVpptrqjy_BFZ2X-19">
          <mxGeometry y="78" width="90" height="26" as="geometry" />
        </mxCell>
        <mxCell id="WnycxrVpptrqjy_BFZ2X-23" value="权重计算公式" style="text;strokeColor=none;fillColor=none;align=left;verticalAlign=top;spacingLeft=4;spacingRight=4;overflow=hidden;rotatable=0;points=[[0,0.5],[1,0.5]];portConstraint=eastwest;" vertex="1" parent="WnycxrVpptrqjy_BFZ2X-19">
          <mxGeometry y="104" width="90" height="26" as="geometry" />
        </mxCell>
        <mxCell id="WnycxrVpptrqjy_BFZ2X-24" value="结果聚合" style="text;strokeColor=none;fillColor=none;align=left;verticalAlign=top;spacingLeft=4;spacingRight=4;overflow=hidden;rotatable=0;points=[[0,0.5],[1,0.5]];portConstraint=eastwest;" vertex="1" parent="WnycxrVpptrqjy_BFZ2X-19">
          <mxGeometry y="130" width="90" height="26" as="geometry" />
        </mxCell>
        <mxCell id="WnycxrVpptrqjy_BFZ2X-26" value="权重配置" style="swimlane;fontStyle=0;childLayout=stackLayout;horizontal=1;startSize=26;fillColor=none;horizontalStack=0;resizeParent=1;resizeParentMax=0;resizeLast=0;collapsible=1;marginBottom=0;" vertex="1" parent="WnycxrVpptrqjy_BFZ2X-6">
          <mxGeometry x="140" y="240" width="90" height="156" as="geometry" />
        </mxCell>
        <mxCell id="WnycxrVpptrqjy_BFZ2X-27" value="ruleId" style="text;strokeColor=none;fillColor=none;align=left;verticalAlign=top;spacingLeft=4;spacingRight=4;overflow=hidden;rotatable=0;points=[[0,0.5],[1,0.5]];portConstraint=eastwest;" vertex="1" parent="WnycxrVpptrqjy_BFZ2X-26">
          <mxGeometry y="26" width="90" height="26" as="geometry" />
        </mxCell>
        <mxCell id="WnycxrVpptrqjy_BFZ2X-28" value="上浮最大值" style="text;strokeColor=none;fillColor=none;align=left;verticalAlign=top;spacingLeft=4;spacingRight=4;overflow=hidden;rotatable=0;points=[[0,0.5],[1,0.5]];portConstraint=eastwest;" vertex="1" parent="WnycxrVpptrqjy_BFZ2X-26">
          <mxGeometry y="52" width="90" height="26" as="geometry" />
        </mxCell>
        <mxCell id="WnycxrVpptrqjy_BFZ2X-29" value="下浮最大值" style="text;strokeColor=none;fillColor=none;align=left;verticalAlign=top;spacingLeft=4;spacingRight=4;overflow=hidden;rotatable=0;points=[[0,0.5],[1,0.5]];portConstraint=eastwest;" vertex="1" parent="WnycxrVpptrqjy_BFZ2X-26">
          <mxGeometry y="78" width="90" height="26" as="geometry" />
        </mxCell>
        <mxCell id="WnycxrVpptrqjy_BFZ2X-30" value="权重计算公式" style="text;strokeColor=none;fillColor=none;align=left;verticalAlign=top;spacingLeft=4;spacingRight=4;overflow=hidden;rotatable=0;points=[[0,0.5],[1,0.5]];portConstraint=eastwest;" vertex="1" parent="WnycxrVpptrqjy_BFZ2X-26">
          <mxGeometry y="104" width="90" height="26" as="geometry" />
        </mxCell>
        <mxCell id="WnycxrVpptrqjy_BFZ2X-31" value="结果聚合" style="text;strokeColor=none;fillColor=none;align=left;verticalAlign=top;spacingLeft=4;spacingRight=4;overflow=hidden;rotatable=0;points=[[0,0.5],[1,0.5]];portConstraint=eastwest;" vertex="1" parent="WnycxrVpptrqjy_BFZ2X-26">
          <mxGeometry y="130" width="90" height="26" as="geometry" />
        </mxCell>
        <mxCell id="WnycxrVpptrqjy_BFZ2X-18" value="匹配机制" style="swimlane;" vertex="1" parent="1">
          <mxGeometry x="180" y="530" width="500" height="470" as="geometry" />
        </mxCell>
        <mxCell id="WnycxrVpptrqjy_BFZ2X-36" value="group pool" style="swimlane;" vertex="1" parent="1">
          <mxGeometry x="780" y="530" width="260" height="470" as="geometry" />
        </mxCell>
        <mxCell id="WnycxrVpptrqjy_BFZ2X-37" value="group-1" style="swimlane;fontStyle=0;childLayout=stackLayout;horizontal=1;startSize=26;fillColor=none;horizontalStack=0;resizeParent=1;resizeParentMax=0;resizeLast=0;collapsible=1;marginBottom=0;" vertex="1" parent="WnycxrVpptrqjy_BFZ2X-36">
          <mxGeometry x="10" y="40" width="90" height="260" as="geometry" />
        </mxCell>
        <mxCell id="WnycxrVpptrqjy_BFZ2X-38" value="id" style="text;strokeColor=none;fillColor=none;align=left;verticalAlign=top;spacingLeft=4;spacingRight=4;overflow=hidden;rotatable=0;points=[[0,0.5],[1,0.5]];portConstraint=eastwest;" vertex="1" parent="WnycxrVpptrqjy_BFZ2X-37">
          <mxGeometry y="26" width="90" height="26" as="geometry" />
        </mxCell>
        <mxCell id="WnycxrVpptrqjy_BFZ2X-39" value="人数" style="text;strokeColor=none;fillColor=none;align=left;verticalAlign=top;spacingLeft=4;spacingRight=4;overflow=hidden;rotatable=0;points=[[0,0.5],[1,0.5]];portConstraint=eastwest;" vertex="1" parent="WnycxrVpptrqjy_BFZ2X-37">
          <mxGeometry y="52" width="90" height="26" as="geometry" />
        </mxCell>
        <mxCell id="WnycxrVpptrqjy_BFZ2X-40" value="权重" style="text;strokeColor=none;fillColor=none;align=left;verticalAlign=top;spacingLeft=4;spacingRight=4;overflow=hidden;rotatable=0;points=[[0,0.5],[1,0.5]];portConstraint=eastwest;" vertex="1" parent="WnycxrVpptrqjy_BFZ2X-37">
          <mxGeometry y="78" width="90" height="26" as="geometry" />
        </mxCell>
        <mxCell id="WnycxrVpptrqjy_BFZ2X-41" value="匹配超时时间" style="text;strokeColor=none;fillColor=none;align=left;verticalAlign=top;spacingLeft=4;spacingRight=4;overflow=hidden;rotatable=0;points=[[0,0.5],[1,0.5]];portConstraint=eastwest;" vertex="1" parent="WnycxrVpptrqjy_BFZ2X-37">
          <mxGeometry y="104" width="90" height="26" as="geometry" />
        </mxCell>
        <mxCell id="WnycxrVpptrqjy_BFZ2X-42" value="成功超时时间" style="text;strokeColor=none;fillColor=none;align=left;verticalAlign=top;spacingLeft=4;spacingRight=4;overflow=hidden;rotatable=0;points=[[0,0.5],[1,0.5]];portConstraint=eastwest;" vertex="1" parent="WnycxrVpptrqjy_BFZ2X-37">
          <mxGeometry y="130" width="90" height="26" as="geometry" />
        </mxCell>
        <mxCell id="WnycxrVpptrqjy_BFZ2X-43" value="报名时间" style="text;strokeColor=none;fillColor=none;align=left;verticalAlign=top;spacingLeft=4;spacingRight=4;overflow=hidden;rotatable=0;points=[[0,0.5],[1,0.5]];portConstraint=eastwest;" vertex="1" parent="WnycxrVpptrqjy_BFZ2X-37">
          <mxGeometry y="156" width="90" height="26" as="geometry" />
        </mxCell>
        <mxCell id="WnycxrVpptrqjy_BFZ2X-51" value="成功时间" style="text;strokeColor=none;fillColor=none;align=left;verticalAlign=top;spacingLeft=4;spacingRight=4;overflow=hidden;rotatable=0;points=[[0,0.5],[1,0.5]];portConstraint=eastwest;" vertex="1" parent="WnycxrVpptrqjy_BFZ2X-37">
          <mxGeometry y="182" width="90" height="26" as="geometry" />
        </mxCell>
        <mxCell id="WnycxrVpptrqjy_BFZ2X-52" value="玩家列表" style="text;strokeColor=none;fillColor=none;align=left;verticalAlign=top;spacingLeft=4;spacingRight=4;overflow=hidden;rotatable=0;points=[[0,0.5],[1,0.5]];portConstraint=eastwest;" vertex="1" parent="WnycxrVpptrqjy_BFZ2X-37">
          <mxGeometry y="208" width="90" height="26" as="geometry" />
        </mxCell>
        <mxCell id="WnycxrVpptrqjy_BFZ2X-53" value="分组ID" style="text;strokeColor=none;fillColor=none;align=left;verticalAlign=top;spacingLeft=4;spacingRight=4;overflow=hidden;rotatable=0;points=[[0,0.5],[1,0.5]];portConstraint=eastwest;" vertex="1" parent="WnycxrVpptrqjy_BFZ2X-37">
          <mxGeometry y="234" width="90" height="26" as="geometry" />
        </mxCell>
        <mxCell id="WnycxrVpptrqjy_BFZ2X-64" value="group-1" style="swimlane;fontStyle=0;childLayout=stackLayout;horizontal=1;startSize=26;fillColor=none;horizontalStack=0;resizeParent=1;resizeParentMax=0;resizeLast=0;collapsible=1;marginBottom=0;" vertex="1" parent="WnycxrVpptrqjy_BFZ2X-36">
          <mxGeometry x="130" y="40" width="90" height="260" as="geometry" />
        </mxCell>
        <mxCell id="WnycxrVpptrqjy_BFZ2X-65" value="id" style="text;strokeColor=none;fillColor=none;align=left;verticalAlign=top;spacingLeft=4;spacingRight=4;overflow=hidden;rotatable=0;points=[[0,0.5],[1,0.5]];portConstraint=eastwest;" vertex="1" parent="WnycxrVpptrqjy_BFZ2X-64">
          <mxGeometry y="26" width="90" height="26" as="geometry" />
        </mxCell>
        <mxCell id="WnycxrVpptrqjy_BFZ2X-66" value="人数" style="text;strokeColor=none;fillColor=none;align=left;verticalAlign=top;spacingLeft=4;spacingRight=4;overflow=hidden;rotatable=0;points=[[0,0.5],[1,0.5]];portConstraint=eastwest;" vertex="1" parent="WnycxrVpptrqjy_BFZ2X-64">
          <mxGeometry y="52" width="90" height="26" as="geometry" />
        </mxCell>
        <mxCell id="WnycxrVpptrqjy_BFZ2X-67" value="权重" style="text;strokeColor=none;fillColor=none;align=left;verticalAlign=top;spacingLeft=4;spacingRight=4;overflow=hidden;rotatable=0;points=[[0,0.5],[1,0.5]];portConstraint=eastwest;" vertex="1" parent="WnycxrVpptrqjy_BFZ2X-64">
          <mxGeometry y="78" width="90" height="26" as="geometry" />
        </mxCell>
        <mxCell id="WnycxrVpptrqjy_BFZ2X-68" value="匹配超时时间" style="text;strokeColor=none;fillColor=none;align=left;verticalAlign=top;spacingLeft=4;spacingRight=4;overflow=hidden;rotatable=0;points=[[0,0.5],[1,0.5]];portConstraint=eastwest;" vertex="1" parent="WnycxrVpptrqjy_BFZ2X-64">
          <mxGeometry y="104" width="90" height="26" as="geometry" />
        </mxCell>
        <mxCell id="WnycxrVpptrqjy_BFZ2X-69" value="成功超时时间" style="text;strokeColor=none;fillColor=none;align=left;verticalAlign=top;spacingLeft=4;spacingRight=4;overflow=hidden;rotatable=0;points=[[0,0.5],[1,0.5]];portConstraint=eastwest;" vertex="1" parent="WnycxrVpptrqjy_BFZ2X-64">
          <mxGeometry y="130" width="90" height="26" as="geometry" />
        </mxCell>
        <mxCell id="WnycxrVpptrqjy_BFZ2X-70" value="报名时间" style="text;strokeColor=none;fillColor=none;align=left;verticalAlign=top;spacingLeft=4;spacingRight=4;overflow=hidden;rotatable=0;points=[[0,0.5],[1,0.5]];portConstraint=eastwest;" vertex="1" parent="WnycxrVpptrqjy_BFZ2X-64">
          <mxGeometry y="156" width="90" height="26" as="geometry" />
        </mxCell>
        <mxCell id="WnycxrVpptrqjy_BFZ2X-71" value="成功时间" style="text;strokeColor=none;fillColor=none;align=left;verticalAlign=top;spacingLeft=4;spacingRight=4;overflow=hidden;rotatable=0;points=[[0,0.5],[1,0.5]];portConstraint=eastwest;" vertex="1" parent="WnycxrVpptrqjy_BFZ2X-64">
          <mxGeometry y="182" width="90" height="26" as="geometry" />
        </mxCell>
        <mxCell id="WnycxrVpptrqjy_BFZ2X-72" value="玩家列表" style="text;strokeColor=none;fillColor=none;align=left;verticalAlign=top;spacingLeft=4;spacingRight=4;overflow=hidden;rotatable=0;points=[[0,0.5],[1,0.5]];portConstraint=eastwest;" vertex="1" parent="WnycxrVpptrqjy_BFZ2X-64">
          <mxGeometry y="208" width="90" height="26" as="geometry" />
        </mxCell>
        <mxCell id="WnycxrVpptrqjy_BFZ2X-73" value="分组ID" style="text;strokeColor=none;fillColor=none;align=left;verticalAlign=top;spacingLeft=4;spacingRight=4;overflow=hidden;rotatable=0;points=[[0,0.5],[1,0.5]];portConstraint=eastwest;" vertex="1" parent="WnycxrVpptrqjy_BFZ2X-64">
          <mxGeometry y="234" width="90" height="26" as="geometry" />
        </mxCell>
        <mxCell id="WnycxrVpptrqjy_BFZ2X-104" value="小组权重-二级索引" style="shape=table;html=1;whiteSpace=wrap;startSize=30;container=1;collapsible=0;childLayout=tableLayout;fixedRows=1;rowLines=0;fontStyle=1;align=center;" vertex="1" parent="1">
          <mxGeometry x="270" y="1070" width="180" height="150" as="geometry" />
        </mxCell>
        <mxCell id="WnycxrVpptrqjy_BFZ2X-105" value="" style="shape=partialRectangle;html=1;whiteSpace=wrap;collapsible=0;dropTarget=0;pointerEvents=0;fillColor=none;top=0;left=0;bottom=1;right=0;points=[[0,0.5],[1,0.5]];portConstraint=eastwest;" vertex="1" parent="WnycxrVpptrqjy_BFZ2X-104">
          <mxGeometry y="30" width="180" height="30" as="geometry" />
        </mxCell>
        <mxCell id="WnycxrVpptrqjy_BFZ2X-106" value="weight value" style="shape=partialRectangle;html=1;whiteSpace=wrap;connectable=0;fillColor=none;top=0;left=0;bottom=0;right=0;overflow=hidden;" vertex="1" parent="WnycxrVpptrqjy_BFZ2X-105">
          <mxGeometry width="90" height="30" as="geometry" />
        </mxCell>
        <mxCell id="WnycxrVpptrqjy_BFZ2X-107" value="group id" style="shape=partialRectangle;html=1;whiteSpace=wrap;connectable=0;fillColor=none;top=0;left=0;bottom=0;right=0;align=left;spacingLeft=6;overflow=hidden;" vertex="1" parent="WnycxrVpptrqjy_BFZ2X-105">
          <mxGeometry x="90" width="90" height="30" as="geometry" />
        </mxCell>
        <mxCell id="WnycxrVpptrqjy_BFZ2X-108" value="" style="shape=partialRectangle;html=1;whiteSpace=wrap;collapsible=0;dropTarget=0;pointerEvents=0;fillColor=none;top=0;left=0;bottom=0;right=0;points=[[0,0.5],[1,0.5]];portConstraint=eastwest;" vertex="1" parent="WnycxrVpptrqjy_BFZ2X-104">
          <mxGeometry y="60" width="180" height="30" as="geometry" />
        </mxCell>
        <mxCell id="WnycxrVpptrqjy_BFZ2X-109" value="2" style="shape=partialRectangle;html=1;whiteSpace=wrap;connectable=0;fillColor=none;top=0;left=0;bottom=0;right=0;overflow=hidden;" vertex="1" parent="WnycxrVpptrqjy_BFZ2X-108">
          <mxGeometry width="90" height="30" as="geometry" />
        </mxCell>
        <mxCell id="WnycxrVpptrqjy_BFZ2X-110" value="Value 2" style="shape=partialRectangle;html=1;whiteSpace=wrap;connectable=0;fillColor=none;top=0;left=0;bottom=0;right=0;align=left;spacingLeft=6;overflow=hidden;" vertex="1" parent="WnycxrVpptrqjy_BFZ2X-108">
          <mxGeometry x="90" width="90" height="30" as="geometry" />
        </mxCell>
        <mxCell id="WnycxrVpptrqjy_BFZ2X-111" value="" style="shape=partialRectangle;html=1;whiteSpace=wrap;collapsible=0;dropTarget=0;pointerEvents=0;fillColor=none;top=0;left=0;bottom=0;right=0;points=[[0,0.5],[1,0.5]];portConstraint=eastwest;" vertex="1" parent="WnycxrVpptrqjy_BFZ2X-104">
          <mxGeometry y="90" width="180" height="30" as="geometry" />
        </mxCell>
        <mxCell id="WnycxrVpptrqjy_BFZ2X-112" value="3" style="shape=partialRectangle;html=1;whiteSpace=wrap;connectable=0;fillColor=none;top=0;left=0;bottom=0;right=0;overflow=hidden;" vertex="1" parent="WnycxrVpptrqjy_BFZ2X-111">
          <mxGeometry width="90" height="30" as="geometry" />
        </mxCell>
        <mxCell id="WnycxrVpptrqjy_BFZ2X-113" value="Value 3" style="shape=partialRectangle;html=1;whiteSpace=wrap;connectable=0;fillColor=none;top=0;left=0;bottom=0;right=0;align=left;spacingLeft=6;overflow=hidden;" vertex="1" parent="WnycxrVpptrqjy_BFZ2X-111">
          <mxGeometry x="90" width="90" height="30" as="geometry" />
        </mxCell>
      </root>
    </mxGraphModel>
  </diagram>
</mxfile>
